Coordinates
version=1
nRows=36
nColumns=13
inDegrees=yes

Units are S.I. units (second, meters, Newtons, ...)
If the header above contains a line with 'inDegrees', this indicates whether rotational values are in degrees (yes) or radians (no).

endheader
time	bJoint_3	bJoint_4	seatpos	slocangle	plocangle	hipangle	kneeangle	footangle	lbackangle	uarmleft_out	uarmleft_trn	uarmleft_up
      1.48000000	      0.00000000	     -0.00000020	     -0.15608828	      0.00000000	     -0.00000000	     60.96677669	     66.80674118	     37.77351786	     -3.32420982	     74.95494906	    281.74271745	    104.39708896
      1.50000000	      0.00000000	     -0.00000020	     -0.17106051	      0.00000000	     -0.00000000	     59.28103619	     70.08506324	     39.36609943	     -1.81039189	     75.64256535	    279.72506623	    103.79454282
      1.52000000	     -0.00000000	     -0.00000020	     -0.18628802	      0.00000000	     -0.00000000	     57.63884661	     73.28695689	     40.92580350	     -0.23676131	     76.64266916	    277.63453113	    102.85974974
      1.54000000	     -0.00000000	     -0.00000020	     -0.20226042	      0.00000000	     -0.00000000	     55.98488948	     76.52050328	     42.50539276	      1.29427786	     77.72928499	    275.21887417	    101.82763782
      1.56000000	     -0.00000000	     -0.00000020	     -0.21899211	      0.00000000	     -0.00000000	     54.31863684	     79.78748117	     44.10611801	      2.87158279	     78.88659902	    272.82166191	    100.70296819
      1.58000000	     -0.00000000	     -0.00000020	     -0.23592548	      0.00000000	     -0.00000000	     52.69356516	     82.98343338	     45.67699854	      4.42782204	     80.32434257	    270.51712257	     99.27774887
      1.60000000	      0.00000000	     -0.00000020	     -0.25309835	      0.00000000	     -0.00000000	     51.10170879	     86.12407750	     47.22578629	      5.98430532	     81.94923026	    267.82863230	     97.64966111
      1.62000000	      0.00000000	     -0.00000020	     -0.27104890	      0.00000000	     -0.00000000	     49.49214029	     89.31058422	     48.80272451	      7.55709321	     83.62006379	    265.32688056	     95.96093831
      1.64000000	      0.00000000	     -0.00000020	     -0.28927881	      0.00000000	     -0.00000000	     47.90896599	     92.45651711	     50.36548310	      9.11006443	     85.47847357	    263.01017919	     94.07480784
      1.66000000	     -0.00000000	     -0.00000020	     -0.30804298	      0.00000000	     -0.00000000	     46.32863202	     95.60949814	     51.93813015	     10.66357738	     87.52952573	    260.43553989	     91.98554904
      1.68000000	     -0.00000000	     -0.00000020	     -0.32730114	      0.00000000	     -0.00000000	     44.75422601	     98.76460822	     53.51883424	     11.38672629	     89.16976148	    259.36676041	     90.31436768
      1.70000000	     -0.00000000	     -0.00000020	     -0.34632023	      0.00000000	     -0.00000000	     43.24291964	    101.80786706	     55.05078670	     11.41288199	     90.29837480	    259.27144860	     89.16539826
      1.72000000	     -0.00000000	     -0.00000020	     -0.36631425	      0.00000000	     -0.00000000	     41.69745195	    104.93652677	     56.63397872	     11.40729120	     91.42576253	    259.54784882	     88.01534704
      1.74000000	     -0.00000000	     -0.00000020	     -0.38631347	      0.00000000	     -0.00000000	     40.19312662	    108.00015220	     58.19327882	     11.40790096	     92.65910311	    259.63720320	     86.75927301
      1.76000000	     -0.00000000	     -0.00000020	     -0.40655153	      0.00000000	     -0.00000000	     38.71072342	    111.03924729	     59.74997070	     11.45806369	     93.90229109	    259.69644749	     85.49439250
      1.78000000	     -0.00000000	     -0.00000020	     -0.42730916	      0.00000000	     -0.00000000	     37.22994970	    114.09796567	     61.32791537	     11.40575985	     95.24714767	    259.99910535	     84.12174702
      1.80000000	     -0.00000000	     -0.00000020	     -0.44830350	      0.00000000	     -0.00000000	     35.77162050	    117.13642969	     62.90805019	     11.39979635	     96.50569386	    260.27336581	     82.83826052
      1.82000000	     -0.00000000	     -0.00000020	     -0.46929217	      0.00000000	     -0.00000000	     34.35218354	    120.12313077	     64.47531431	     11.38395860	     97.78127916	    260.64293297	     81.53051972
      1.84000000	     -0.00000000	     -0.00000020	     -0.49030129	      0.00000000	     -0.00000000	     32.96941535	    123.06568902	     66.03510437	     11.40119706	     99.15376323	    261.19689858	     80.12474589
      1.86000000	     -0.00000000	     -0.00000020	     -0.51130836	      0.00000000	     -0.00000000	     31.62492317	    125.96436751	     67.58929068	     11.41780410	    100.43932862	    261.56540276	     78.81296833
      1.88000000	     -0.00000000	     -0.00000020	     -0.53253439	      0.00000000	     -0.00000000	     30.30587713	    128.85208204	     69.15795917	     11.44082069	    101.80274035	    262.10993536	     77.41790634
      1.90000000	     -0.00000000	     -0.00000020	     -0.55354456	      0.00000000	     -0.00000000	     29.04075077	    131.67232470	     70.71307547	     11.46687328	    103.12186705	    262.57871352	     76.07091887
      1.92000000	     -0.00000000	     -0.00000020	     -0.57453640	      0.00000000	     -0.00000000	     27.81926767	    134.45449406	     72.27376172	     11.45197187	    104.40573216	    263.25301291	     74.75608580
      1.94000000	     -0.00000000	     -0.00000020	     -0.59553482	      0.00000000	     -0.00000000	     26.64328053	    137.20376821	     73.84704874	     11.45350397	    105.69964683	    263.93153529	     73.43290777
      1.96000000	     -0.00000000	     -0.00000020	     -0.65652134	      0.00000000	     -0.00000000	     23.53927244	    145.00837744	     78.54764988	     11.44861421	    110.50075677	    263.18515501	     68.60097485
      1.98000000	     -0.00000000	     -0.00000020	     -0.64353176	      0.00000000	     -0.00000000	     24.15563528	    143.36800217	     77.52363745	     11.46004043	    111.08939435	    259.70743513	     68.18731168
      2.00000000	     -0.00000000	     -0.00000020	     -0.57229918	      0.00000000	     -0.00000000	     27.94733351	    134.15961799	     72.10695150	     11.40156594	    106.87713776	    257.26707487	     72.55765527
      2.02000000	     -0.00000000	     -0.00000020	     -0.52854389	      0.00000000	     -0.00000000	     30.55077382	    128.31222059	     68.86299441	     11.45742987	    104.19371049	    255.86402081	     75.37622064
      2.04000000	     -0.00000000	     -0.00000020	     -0.48529055	      0.00000000	     -0.00000000	     33.29575880	    122.36796125	     65.66372005	     11.39038102	    101.38244784	    254.90461788	     78.29303501
      2.06000000	     -0.00000000	     -0.00000020	     -0.44153059	      0.00000000	     -0.00000000	     36.23783888	    116.16197596	     62.39981484	     11.44523879	     98.67024655	    253.98455331	     81.10578547
      2.08000000	     -0.00000000	     -0.00000020	     -0.39929794	      0.00000000	     -0.00000000	     39.23755325	    109.95672202	     59.19427527	     11.39179337	     96.02720939	    253.49938075	     83.87815083
      2.10000000	     -0.00000000	     -0.00000020	     -0.35754181	      0.00000000	     -0.00000000	     42.37025947	    103.57229246	     55.94255192	     11.44913602	     93.40701965	    253.02709989	     86.56468485
      2.12000000	     -0.00000000	     -0.00000020	     -0.31733911	      0.00000000	     -0.00000000	     45.56288514	     97.14222218	     52.70510732	     11.41228990	     90.99733721	    252.70981789	     89.00425489
      2.14000000	     -0.00000000	     -0.00000020	     -0.27927604	      0.00000000	     -0.00000000	     48.77153359	     90.74100435	     49.51253794	      9.11560862	     87.40562442	    256.18306322	     92.72764635
      2.16000000	     -0.00000000	     -0.00000020	     -0.24214172	      0.00000000	     -0.00000000	     52.11112643	     84.13136199	     46.24248843	      6.82463941	     84.25902215	    259.87139790	     96.01582271
      2.18000000	      0.00000000	     -0.00000020	     -0.20721039	      0.00000000	     -0.00000000	     55.48523807	     77.49913903	     42.98437710	      4.59339395	     81.67485269	    263.38109716	     98.70610683
